PathFileType	4	(X/Y/Z)	8_coords_data.trc
DataRate	CameraRate	NumFrames	NumMarkers	Units	OrigDataRate	OrigDataStartFrame	OrigNumFrames
30.0	30.0	6	21	m	30.0	32	62
Frame#	Time	THUMB_TIP	THUMB_IP	THUMB_MCP	THUMB_CMC	INDEX_TIP	INDEX_DIP	INDEX_PIP	INDEX_MCP	MIDDLE_TIP	MIDDLE_DIP	MIDDLE_PIP	MIDDLE_MCP	RING_TIP	RING_DIP	RING_PIP	RING_MCP	PINKY_TIP	PINKY_DIP	PINKY_PIP	PINKY_MCP	WRIST
X1	Y1	Z1	X2	Y2	Z2	X3	Y3	Z3	X4	Y4	Z4	X5	Y5	Z5	X6	Y6	Z6	X7	Y7	Z7	X8	Y8	Z8	X9	Y9	Z9	X10	Y10	Z10	X11	Y11	Z11	X12	Y12	Z12	X13	Y13	Z13	X14	Y14	Z14	X15	Y15	Z15	X16	Y16	Z16	X17	Y17	Z17	X18	Y18	Z18	X19	Y19	Z19	X20	Y20	Z20	X21	Y21	Z21
31	1.0333333333333334	-0.007733719825744629	-0.08756459808349609	1.0129400024414061	-0.011462900161743164	-0.06746379852294922	1.0301199951171875	-0.01574720001220703	-0.04684479904174805	1.0469100341796875	-0.018422800064086912	-0.01668079948425293	1.0591199951171875	0.0053508000373840335	-0.06505269622802734	0.93772900390625	-0.003215140104293823	-0.058005001068115236	0.9563519897460937	-0.013255900382995605	-0.050658199310302736	0.9745960083007813	-0.02314590072631836	-0.0346609001159668	1.006739990234375	0.001995020031929016	-0.027698299407958985	0.9164140014648438	-0.0059356999397277834	-0.024969900131225586	0.9393629760742187	-0.01789550018310547	-0.02118040084838867	0.9639730224609375	-0.026257400512695313	-0.014084300041198731	0.9999849853515625	0.0076752700805664065	0.007937270164489746	0.9254869995117188	-0.003230989933013916	0.008114620208740235	0.9460659790039062	-0.01573929977416992	0.008005229949951172	0.9682130126953125	-0.021414699554443358	0.005562310218811035	1.0008900146484374	0.017208499908447264	0.047354099273681644	0.9604500122070313	0.005929090023040771	0.04023009872436523	0.975218994140625	-0.004180170059204101	0.03351390075683594	0.9877059936523438	-0.015578499794006348	0.022142900466918945	1.0075	-0.0423843002319336	0.011684399604797363	1.0703800048828125
32	1.0666666666666667	-0.007600329875946045	-0.08754080200195312	1.0129500122070312	-0.01131820011138916	-0.067447998046875	1.0301099853515625	-0.015642800331115723	-0.046756698608398435	1.0469000244140625	-0.018316200256347656	-0.016583900451660156	1.0590699462890625	0.005574069976806641	-0.0652227020263672	0.9378870239257813	-0.003093919992446899	-0.058097900390625	0.9564710083007812	-0.013163700103759765	-0.0507057991027832	0.9746630249023438	-0.023136999130249022	-0.03469490051269531	1.0066900024414063	0.002037919998168945	-0.02776689910888672	0.9164099731445312	-0.005873469829559326	-0.025003599166870116	0.939343017578125	-0.017846500396728516	-0.021204999923706055	0.963927978515625	-0.02606450080871582	-0.014026599884033203	1.00002001953125	0.007685969829559327	0.007864240169525147	0.9254219970703125	-0.003208450078964233	0.008056859970092773	0.9460289916992187	-0.015692500114440917	0.007986199855804444	0.9682050170898437	-0.021343099594116212	0.005575339794158934	1.0008900146484374	0.017275899887084962	0.04734120178222656	0.9603280029296875	0.005995790004730225	0.040227001190185546	0.9751019897460937	-0.004115799903869629	0.03352780151367187	0.9875969848632813	-0.015525500297546386	0.022169500350952148	1.0074199829101562	-0.04219390106201172	0.011749799728393556	1.0703800048828125
33	1.1	-0.007636290073394775	-0.08748670196533204	1.0129299926757813	-0.0113302001953125	-0.06740509796142578	1.0300699462890626	-0.015624099731445313	-0.046688499450683596	1.0469100341796875	-0.018278099060058593	-0.01654899978637695	1.0591199951171875	0.005699749946594238	-0.06513390350341797	0.93789697265625	-0.0030055398941040037	-0.058035099029541015	0.9564719848632812	-0.013081999778747558	-0.050643901824951175	0.9746500244140625	-0.022976499557495117	-0.03452199935913086	1.006760009765625	0.002263819932937622	-0.027663999557495118	0.916427001953125	-0.005698740005493164	-0.02492930030822754	0.9393930053710937	-0.017720199584960936	-0.021136699676513673	0.9639119873046875	-0.025936199188232423	-0.013971799850463868	0.9999299926757812	0.007852180004119873	0.007856040000915528	0.9254429931640625	-0.003075789928436279	0.008071909904479981	0.9460540161132812	-0.015556799888610839	0.008031200408935547	0.9681929931640625	-0.021212900161743164	0.0056268200874328616	1.0008400268554687	0.017406600952148438	0.04734989929199219	0.9603209838867187	0.0061219301223754885	0.04025450134277344	0.9750759887695313	-0.003984489917755127	0.033580101013183594	0.987593994140625	-0.01537600040435791	0.022224199295043944	1.0073900146484376	-0.042138301849365234	0.011817399978637694	1.0703699951171874
34	1.1333333333333333	-0.007734700202941895	-0.08739739990234376	1.0128200073242188	-0.011371700286865235	-0.06730059814453125	1.02997998046875	-0.015601099967956543	-0.04660919952392578	1.04681005859375	-0.018230400085449218	-0.016449100494384767	1.0590999755859376	0.005866499900817871	-0.06479869842529297	0.9378410034179687	-0.002926650047302246	-0.057777099609375	0.9563560180664062	-0.013094599723815919	-0.050454700469970706	0.9745349731445313	-0.023069599151611327	-0.03453340148925781	1.0066400146484376	0.002396569967269897	-0.027543100357055664	0.9164140014648438	-0.00559296989440918	-0.024818099975585938	0.9393560180664062	-0.01768790054321289	-0.021002099990844725	0.9638870239257813	-0.026105400085449218	-0.013907500267028809	0.999906005859375	0.00794290018081665	0.0077531800270080565	0.9253900146484375	-0.0029511499404907223	0.007995530128479004	0.9459609985351562	-0.015470499992370606	0.008021439552307129	0.9681279907226562	-0.021160600662231445	0.005710229873657226	1.0008300170898436	0.017414400100708008	0.04726559829711914	0.9601129760742187	0.006146359920501709	0.04021969985961914	0.9749290161132812	-0.00394963002204895	0.033572399139404296	0.9874929809570312	-0.015337900161743164	0.022301300048828125	1.0073900146484376	-0.042119701385498046	0.011965399742126464	1.0704200439453124
35	1.1666666666666667	-0.007801869869232178	-0.08720490264892578	1.0126500244140626	-0.011417499542236328	-0.06712329864501954	1.0298399658203126	-0.015578100204467774	-0.04651559829711914	1.046699951171875	-0.018144399642944335	-0.01634630012512207	1.05897998046875	0.006159150123596192	-0.06450499725341798	0.937822021484375	-0.0027452099323272703	-0.057523799896240235	0.95627197265625	-0.01303950023651123	-0.050233898162841795	0.9744559936523437	-0.023111400604248048	-0.03440250015258789	1.0065900268554688	0.002595809936523437	-0.027412399291992188	0.91639501953125	-0.005442339897155762	-0.02465880012512207	0.9392789916992188	-0.017587499618530275	-0.020856800079345702	0.963781005859375	-0.02600040054321289	-0.013679599761962891	1.000030029296875	0.007865869998931884	0.007532670021057129	0.925239013671875	-0.0030276799201965333	0.007896999835968017	0.9457890014648438	-0.015534099578857421	0.008016260147094726	0.9679500122070313	-0.02117560005187988	0.005858139991760254	1.000719970703125	0.01717930030822754	0.04714289855957031	0.9597329711914062	0.0059506001472473145	0.040225101470947267	0.9746220092773438	-0.004113540172576904	0.033653301239013673	0.9872269897460938	-0.015400400161743164	0.022461000442504882	1.00722998046875	-0.04191299819946289	0.011982500076293945	1.0703399658203125
36	1.2	-0.007799170017242432	-0.08697769927978516	1.0124099731445313	-0.011336999893188477	-0.0669448013305664	1.0296400146484375	-0.015552900314331054	-0.04628710174560547	1.0465400390625	-0.018105600357055666	-0.016143999099731444	1.0588299560546874	0.006713290214538575	-0.06435780334472656	0.9379819946289063	-0.0023887701034545896	-0.0573573989868164	0.9563900146484375	-0.012814499855041505	-0.050067501068115236	0.9744769897460938	-0.023014200210571288	-0.03414739990234375	1.00652001953125	0.003012959957122802	-0.02740519905090332	0.9164879760742187	-0.0051450800895690915	-0.02462190055847168	0.9392839965820312	-0.017390499114990233	-0.020760299682617188	0.9636890258789063	-0.026007699966430663	-0.013573699951171875	0.999697021484375	0.007977139949798585	0.007285220146179199	0.9251510009765626	-0.0030662000179290773	0.007754549980163574	0.945718017578125	-0.01548569965362549	0.007985700130462646	0.9678309936523437	-0.021225200653076173	0.0060150899887084965	1.0005800170898438	0.01710580062866211	0.04708089828491211	0.9594089965820313	0.0058629498481750485	0.0402509994506836	0.9743109741210938	-0.004252769947052002	0.03375320053100586	0.9869739990234375	-0.01554740047454834	0.022665000915527343	1.0070800170898437	-0.041889999389648436	0.012165499687194823	1.0703399658203125
